# xmcd
#
# Track frame offsets: 
#        150
#        11044
#        22541
#        30933
#        41846
#        55078
#        64600
#        75517
#        85786
#        98758
#        109840
#        119297
#        129209
#        140204
#        151931
#        162320
#        173460
#        186559
#        196584
#        207293
#        219385
#        229592
#        238985
#
# Disc length: 3324 seconds
#
# Revision: 4
# Processed by: cddbd v1.5.2PL0 Copyright (c) Steve Scherf et al.
# Submitted via: ExactAudioCopyFreeDBPlugin 1.0
#
DISCID=220cfa17
DTITLE=Various Artist - Rock`n`Roll Music
DYEAR=2004
DGENRE=Rock and Roll
TTITLE0=Let`s Twist Again - CHUBBY CHECKER
TTITLE1=Twist And Shout - THE ISLEY BROTHERS
TTITLE2=Roll Over Beethoven - CHUCK BERRY
TTITLE3=Tutti Frutti - LITTLE RICHARD
TTITLE4=Dizzy Miss Lizzy - THE BEATLES
TTITLE5=Race With The Devil - GENE VINCENT
TTITLE6=Lucille - LITTLE RICHARD
TTITLE7=Sweet Little Sixteen - CHUCK BERRY
TTITLE8=Jumps, Giggles And Shouts - GENE VINCENT
TTITLE9=Limbo Rock - CHUBBY CHECKER
TTITLE10=Good Golly Miss Molly - LITTLE RICHARD
TTITLE11=Rock Around The Clock - PAT BOONE
TTITLE12=Jailhouse Rock - ELVIS PRESLEY
TTITLE13=Rock`n`Roll Music - CHUCK BERRY
TTITLE14=My Baby Left Me - CREEDENCE CLEARWATER REVIVAL
TTITLE15=Rip It Up - BILL HALEY
TTITLE16=Whole Lotta Shakin` Going On - JERRY LEE LEWIS
TTITLE17=Ooby Dooby - ROY ORBISON
TTITLE18=Woody Bully - THE SHAM and THE PHARAOHS
TTITLE19=You Never Can Tell - CHUCK BERRY
TTITLE20=Blue Suede Shoes - CARL PERKINS
TTITLE21=Long Tall Sally - THE BEATLES
TTITLE22=(Get You Kick On) Route 66 - THE ROLLING STONES
EXTD=
EXTT0=
EXTT1=
EXTT2=
EXTT3=
EXTT4=
EXTT5=
EXTT6=
EXTT7=
EXTT8=
EXTT9=
EXTT10=
EXTT11=
EXTT12=
EXTT13=
EXTT14=
EXTT15=
EXTT16=
EXTT17=
EXTT18=
EXTT19=
EXTT20=
EXTT21=
EXTT22=
PLAYORDER=
